<svg xmlns="http://www.w3.org/2000/svg" viewBox="0 0 512 512">
  <defs>
    <linearGradient id="sky" x1="0" y1="0" x2="0" y2="1">
      <stop offset="0" stop-color="#3a7a8d"/>
      <stop offset="1" stop-color="#dff3f7"/>
    </linearGradient>
  </defs>
  <rect width="512" height="512" fill="#3a7a8d"/>
  <path d="M0 300 L140 160 L230 265 L320 190 L420 300 L512 250 L512 512 L0 512 Z" fill="#5aa7bb"/>
  <path d="M0 380 L512 360 L512 512 L0 512 Z" fill="#3a7a8d"/>
  <path d="M0 300 L512 300 L512 360 L0 380 Z" fill="#2b5f6e"/>
  <circle cx="280" cy="330" r="46" fill="#dff3f7"/>
  <path d="M238 330 a42 42 0 0 1 84 0 z" fill="#e7f7fa"/>
  <path d="M262 322 l0 -16 14 10 12 -12 10 22 z" fill="#e7f7fa" opacity="0.7"/>
</svg>
